<?xml version="1.0" standalone="no"?><!DOCTYPE svg PUBLIC "-//W3C//DTD SVG 1.1//EN" "http://www.w3.org/Graphics/SVG/1.1/DTD/svg11.dtd"><svg t="1682647796357" class="icon" viewBox="0 0 1024 1024" version="1.1" xmlns="http://www.w3.org/2000/svg" p-id="2670" xmlns:xlink="http://www.w3.org/1999/xlink" width="200" height="200"><path d="M811.707317 544.468293h17.482927V212.292683c0-34.965854-29.970732-64.936585-67.434146-64.936585H232.273171C194.809756 147.356098 164.839024 174.829268 164.839024 212.292683v541.970732c0 34.965854 29.970732 64.936585 67.434147 64.936585H512c7.492683-154.84878 139.863415-274.731707 299.707317-274.731707z" fill="#FFCB2F" p-id="2671"></path><path d="M911.609756 512V159.843902c0-52.44878-44.956098-94.907317-99.902439-94.907317H179.82439c-54.946341 0-99.902439 42.458537-99.902439 94.907317V799.219512c0 52.44878 44.956098 94.907317 99.902439 94.907317h299.707317v64.936586H112.390244c-54.946341 0-99.902439-42.458537-99.902439-94.907317V94.907317C12.487805 42.458537 57.443902 0 112.390244 0h766.751219c54.946341 0 99.902439 42.458537 99.902439 94.907317v417.092683H911.609756z m32.468293-32.468293c17.482927 0 32.468293 14.985366 32.468292 32.468293 0 17.482927-14.985366 32.468293-32.468292 32.468293-17.482927 0-32.468293-14.985366-32.468293-32.468293 0-17.482927 14.985366-32.468293 32.468293-32.468293zM479.531707 896.62439c17.482927 0 32.468293 14.985366 32.468293 32.468293 0 17.482927-14.985366 32.468293-32.468293 32.468293-17.482927 0-32.468293-14.985366-32.468292-32.468293-2.497561-19.980488 12.487805-32.468293 32.468292-32.468293zM247.258537 224.780488H736.780488c17.482927 0 32.468293 14.985366 32.468292 32.468292 0 17.482927-14.985366 32.468293-32.468292 32.468293H247.258537c-17.482927 0-32.468293-14.985366-32.468293-32.468293 0-19.980488 14.985366-32.468293 32.468293-32.468292z m0 254.751219h132.370731c17.482927 0 32.468293 14.985366 32.468293 32.468293 0 17.482927-14.985366 32.468293-32.468293 32.468293H247.258537c-17.482927 0-32.468293-14.985366-32.468293-32.468293 0-17.482927 14.985366-32.468293 32.468293-32.468293zM811.707317 1024c-109.892683 0-199.804878-84.917073-199.804878-192.312195 0-104.897561 89.912195-192.312195 199.804878-192.312195s199.804878 84.917073 199.804878 192.312195c0 107.395122-89.912195 192.312195-199.804878 192.312195z m0-319.687805c-72.429268 0-132.370732 57.443902-132.370732 127.37561s59.941463 127.37561 132.370732 127.37561 132.370732-57.443902 132.370732-127.37561-59.941463-127.37561-132.370732-127.37561z m-334.673171-214.790244c12.487805-12.487805 34.965854-12.487805 47.453659 0l197.307317 189.814634c12.487805 12.487805 12.487805 32.468293 0 44.956098s-32.468293 12.487805-47.453659 0l-197.307317-189.814634c-7.492683-4.995122-9.990244-14.985366-9.990244-22.478049 0-7.492683 4.995122-17.482927 9.990244-22.478049z m62.439025 59.941464l94.907317-89.912195c12.487805-12.487805 34.965854-12.487805 47.453658 0s12.487805 32.468293 0 44.956097L586.926829 594.419512c-12.487805 12.487805-32.468293 9.990244-44.956097-2.497561-14.985366-12.487805-14.985366-29.970732-2.497561-42.458536z m0 0" fill="#333333" p-id="2672"></path></svg>